<svg width="385" height="85" viewBox="0 0 385 85" fill="none" xmlns="http://www.w3.org/2000/svg">
<path d="M59.6385 35.4578C57.6631 35.2209 56.6197 36.0431 55.6737 36.7399C54.9642 37.2695 54.2269 38.0778 53.4479 38.3704C52.168 38.8442 50.7908 38.036 49.8866 37.6597C48.8571 37.2416 47.0486 36.6284 45.3375 36.3497C45.4349 36.1407 45.5044 35.9595 45.6018 35.6529C46.6034 35.0119 48.6762 36.1825 49.8587 33.8413C49.5109 33.7994 48.8154 33.465 48.6762 32.8379C49.5109 32.9354 50.8186 32.7821 51.5977 31.8066C50.7769 31.514 50.7908 30.2597 51.2638 29.6883C52.641 27.9882 55.4511 27.0823 56.8145 25.4797C57.4405 24.7411 57.8161 23.6402 57.9969 22.6646C58.2056 21.5358 58.2056 20.2816 58.6786 19.3061C58.8177 19.0274 59.1794 18.4699 59.4855 18.1912C59.2212 17.5084 58.4004 16.8394 57.7883 16.5607C57.8717 16.3377 57.9969 16.1287 58.1639 15.9475C57.6352 15.4319 56.8145 14.9302 56.0354 14.7351C56.0493 14.5539 56.1328 14.3728 56.1884 14.2613C53.6844 12.3103 49.9561 14.4285 50.4708 18.2748C50.5682 19.0413 50.6239 20.3234 50.5265 20.8112C50.4013 21.4243 49.8031 21.7309 49.1631 22.0515C47.4381 22.9294 46.3391 23.5287 45.0314 24.5181C43.9185 22.804 42.2352 21.8982 40.5241 21.1596C37.2271 19.752 34.1527 19.2225 34.3057 17.2575C36.0446 17.8289 39.1191 15.9197 38.966 18.6929C39.759 18.5814 40.3989 17.6616 40.7606 16.8673C41.1641 15.9754 41.3449 14.8048 41.4701 13.8432C41.4979 13.5227 40.6493 13.2858 40.3015 13.1882C40.2737 12.9513 40.1485 12.5332 39.9677 12.1988C41.1919 12.4078 42.9308 13.1603 44.322 12.6587C45.7827 12.1291 46.0748 10.0805 44.6697 9.32797C44.3915 9.17467 44.3776 9.38371 44.4193 9.46733C45.0175 10.5404 44.3359 11.5856 43.209 11.711C42.3048 11.8086 41.0806 11.5577 40.3572 11.4184C40.8163 11.1954 41.2336 10.5543 41.484 10.0526C41.8318 9.99689 42.1796 9.8436 42.3604 9.52307C42.903 8.56149 42.4996 7.12609 42.4856 6.31781C42.4578 5.43985 42.8891 4.6455 42.4717 4.19955C42.0266 3.71179 39.7312 3.29372 38.9382 3.22404C38.2009 3.15436 37.4497 3.11255 37.1854 3.05681C36.5176 2.93138 36.5594 2.61086 34.7787 2.20671C33.8884 2.01161 32.9841 1.84438 32.2607 1.7747C31.7877 1.30088 31.1478 0.868866 30.3966 0.590148C26.7657 -0.775572 21.8549 0.687699 19.796 0.464725C19.323 0.422917 18.8361 0.283556 18.544 0.144196C18.0571 0.757377 17.9736 1.73289 18.0571 2.17884C17.445 2.62479 17.0833 3.27978 16.9024 3.37733C16.4712 3.61424 15.7756 3.58637 15.3304 3.48882C14.7044 4.89634 15.3304 6.0809 15.7478 6.4711C15.5252 7.12609 15.4417 8.12948 15.4139 8.65905C15.3861 9.32797 14.6349 9.82966 13.5915 9.89934C13.5498 11.0282 14.0923 12.4496 15.3165 13.0349C15.2609 15.8221 16.1651 17.8846 17.1111 19.9332C17.445 20.6439 17.8623 21.5637 17.8762 22.1629C17.8902 22.8876 17.3754 23.4869 16.5547 23.5983C16.7355 24.755 18.0988 26.065 19.796 25.9814C19.0448 28.016 17.9041 30.9426 20.116 33.2281C20.436 32.7124 20.9924 32.2247 21.6602 32.1132C21.6602 32.4058 21.7019 32.7403 21.7297 32.9772C22.0358 35.5275 21.1594 36.5169 19.9491 36.9629C20.2412 37.9663 22.008 38.8164 23.3713 38.3983C23.1348 42.7602 19.0448 44.558 17.0555 47.3173C16.6103 47.9444 16.499 48.0977 16.3877 48.2231C15.5669 49.0593 13.5915 49.8258 12.0056 49.7979C9.39024 49.7282 7.55393 47.7911 7.44264 45.0179C7.34526 42.7602 8.45817 39.8476 9.65456 37.0326C12.6594 29.9531 14.8853 24.8944 14.6766 20.4906C14.4958 16.6583 12.5203 13.8014 9.02854 13.5506C4.88292 13.244 2.62927 16.7558 2.5458 20.1701C2.51798 21.2432 2.46233 22.5392 2.37886 23.8631C2.29539 25.1313 1.73893 26.2322 1.08509 27.1381C0.765129 27.584 0.500813 27.8767 0 28.448C1.6972 29.6047 4.31255 28.6013 5.52285 27.6398C5.59241 27.9046 5.66197 28.1136 5.68979 28.3923C7.38699 27.4586 8.34689 25.4658 8.02692 23.0827C8.94508 22.8597 9.59891 22.0654 9.57109 20.7694C8.62511 20.8669 7.84607 20.5046 7.44264 20.0168C6.23234 18.5675 7.19223 15.7524 9.66848 16.4492C10.9622 16.8116 11.6022 18.8741 11.6856 20.6161C11.8526 24.4484 9.83541 28.462 7.0392 34.0364C4.77163 38.5655 3.36658 41.283 3.15791 45.199C2.9075 50.0069 5.75935 55.9157 14.6766 55.0657C14.6766 56.5429 14.8575 57.8807 15.1913 59.1628C15.5113 60.3752 16.2486 62.2984 16.193 63.3157C16.0817 65.7406 12.2977 64.8626 10.378 65.5037C8.76423 66.0472 9.09811 67.6777 8.05475 68.4999C7.59567 68.8622 6.77489 69.0155 6.05149 69.0155C6.3019 70.2837 7.17832 71.2453 8.27733 71.4682C7.80434 71.942 6.95574 72.2905 6.28799 72.2765C6.51057 73.5726 7.62349 74.5481 8.79205 74.6735C8.30515 75.3145 8.24951 76.6245 8.69467 77.4328C9.15375 77.2098 9.90497 76.959 10.4753 77.1401C10.1415 77.7812 10.1971 78.7707 10.7118 79.5511C11.9639 78.3108 12.5342 79.2445 13.2715 80.9447C13.6472 81.8087 14.0923 82.6588 14.6627 83.1744C16.4016 84.7631 18.2519 84.136 22.5366 84.2893C23.2322 84.3172 23.7052 84.6377 24.0529 85C24.5398 84.6795 25.0963 83.9409 25.3745 83.0769C25.5971 83.1465 25.778 83.2301 26.0145 83.3834C26.2927 82.9236 26.5987 82.2407 26.6961 81.5439C26.8491 81.5718 26.9883 81.6415 27.1691 81.7529C28.7272 78.6731 26.7379 75.649 23.9138 75.5515C22.5227 75.4957 21.0202 76.2483 19.9212 76.4155C19.0448 76.5548 18.85 75.9695 18.3631 74.9104C17.445 72.9594 17.0137 69.9353 17.3059 69.9074C19.0726 69.4893 20.5612 69.1549 22.2444 68.6532C23.9277 68.1515 25.764 67.4826 26.8213 66.3119C27.6143 65.42 28.1707 64.2076 28.5185 62.9395C28.8802 61.5877 29.075 60.0268 29.2002 58.2012C32.4137 58.1734 36.1559 58.8702 37.3384 61.072C37.5749 61.518 37.7975 62.3959 37.6444 63.0649C37.1854 65.1692 32.7754 65.3364 32.0799 66.8276C31.5512 67.9564 31.3286 68.9876 29.7566 69.6566C30.0766 70.5624 30.8974 71.2174 31.8295 71.3986C31.4121 72.0814 31.273 73.2938 31.9547 74.4087C32.3303 73.9628 32.998 73.5168 33.6936 73.6701C33.5545 74.5759 33.8049 75.649 34.2361 76.2343C34.5839 75.8859 35.196 75.44 35.7247 75.5793C35.6134 76.2204 35.8638 76.9729 36.2533 77.4746C36.5315 77.182 36.8793 76.9729 37.4358 77.1123C37.8809 77.2238 38.34 78.0878 38.7713 78.6452C39.1747 79.1748 39.6755 79.9691 40.1346 80.2618C41.5536 81.1816 43.376 80.652 47.3547 80.8192C47.6885 80.861 48.2728 81.0283 48.6345 81.3488C49.1492 80.8471 49.5666 79.8298 49.7057 79.0772C49.8865 79.1051 50.1509 79.1887 50.3735 79.3281C50.6378 78.7985 50.9438 77.8369 50.916 76.9172C51.069 76.9032 51.3194 76.9451 51.5003 77.0287C52.3906 73.9767 50.3734 71.6355 47.5772 71.9839C46.2974 72.1511 44.7115 73.1684 43.5986 73.1266C42.8752 73.0987 42.1518 72.2486 41.7901 71.7748C41.1501 70.9526 40.5798 69.8517 40.1903 68.7228C40.1485 68.5974 40.1346 68.5138 40.2876 68.4302C41.8875 67.3571 43.2925 66.3398 44.9758 65.0995C46.673 63.8453 48.8014 62.1312 48.6623 59.1767C48.5371 56.4314 46.2 53.7417 44.2107 52.0416C42.0266 50.1742 39.5225 48.7109 37.2967 47.5821C38.493 46.732 39.3277 46.0352 40.065 45.1293C40.6215 45.6589 40.705 46.4811 40.6215 46.9968C41.8457 47.0246 42.903 46.2442 43.3064 45.4359C43.8629 46.2442 44.8923 46.6623 46.0052 46.7598C46.0052 46.0909 45.9635 45.3384 46.5478 44.9203C46.7426 45.6589 47.5077 46.3975 48.8154 46.6066C48.9127 46.0352 48.9406 45.6868 49.4831 45.6171C49.9422 45.5474 50.8882 45.9098 51.542 46.0491C52.2376 46.2024 53.1279 46.3696 53.8096 46.4254C56.7449 46.6762 57.9691 44.6695 59.8193 44.0702C60.4871 43.8612 61.2383 43.9866 61.7391 44.1538C62.073 43.5406 62.226 42.4955 62.1843 41.9938C62.3373 41.9659 62.546 41.952 62.7964 41.9938C62.8799 41.4363 62.7686 40.5166 62.6851 40.0985C62.8381 40.0706 62.9912 40.0706 63.1998 40.0985C63.3529 37.367 61.5026 35.6947 59.7498 35.4857L59.6385 35.4578ZM58.456 18.0519C58.2752 18.1773 58.0665 18.4142 57.8717 18.8741C57.2318 18.6372 56.2858 17.801 56.4667 17.0624C56.9814 17.0067 57.9691 17.2993 58.456 18.0519ZM57.204 16.1566C57.1623 16.2402 57.1344 16.3099 57.1066 16.3795C56.4806 16.2402 55.9102 16.2959 55.4929 16.4632C55.1451 16.2541 54.686 15.8082 54.7417 15.4598C55.5763 15.1811 56.7449 15.7246 57.1901 16.1705L57.204 16.1566ZM53.3227 14.4424C53.907 14.108 54.7695 14.2195 55.2285 14.4424C55.2007 14.54 55.2007 14.5818 55.2007 14.6654C54.8251 14.6654 54.366 14.763 53.9348 14.972C53.3783 14.8605 53.1418 14.6236 53.3366 14.4564L53.3227 14.4424ZM48.2311 23.459C49.3996 22.7204 51.1803 22.2187 51.3472 20.8112C51.5977 18.5535 50.3178 16.0172 52.7662 14.6933C52.8219 14.9023 52.9888 15.1253 53.4479 15.2368C53.1836 15.4319 52.808 15.836 52.641 16.1984C52.3071 16.937 52.2515 17.578 52.5576 18.4281C52.7106 18.8601 52.8914 18.8462 52.8497 18.6372C52.5715 17.16 52.9749 16.0451 54.2548 15.5852C54.213 15.8778 54.5747 16.4353 55.0199 16.714C54.2269 17.146 53.6148 18.6372 54.3104 19.9332C54.4912 20.2259 54.6721 20.3095 54.5886 20.0029C54.0461 18.233 55.0338 17.1739 55.8824 17.0763C55.7711 18.2191 56.8284 19.0134 57.6352 19.4176C56.9536 21.5498 57.4822 23.1106 56.411 24.546C55.6181 25.6191 54.0322 26.4134 52.9193 27.1381C51.3333 28.1833 49.2188 29.8416 50.3178 31.723C49.6779 32.1411 48.7041 32.0993 48.245 31.9738C48.2033 31.8624 48.1754 31.6951 48.1754 31.514C48.1754 31.4164 48.0224 31.3746 47.9111 31.7369C47.7024 32.364 47.7442 33.4789 48.5371 34.0782C47.6746 34.9143 46.9095 34.2175 45.88 34.6356C46.2 33.5068 46.3252 32.3501 46.3391 31.0819C46.673 31.0819 47.1182 30.8729 47.3547 30.5942C45.9496 29.1448 46.8121 28.4899 45.5462 25.4936C46.2417 24.7829 47.2295 24.1 48.245 23.4729L48.2311 23.459ZM40.1068 10.9306C40.0372 10.9724 40.0372 10.847 40.0233 10.7076C40.0094 10.5822 39.912 10.2338 39.7868 9.92721C40.0233 9.94115 40.538 9.95509 40.8163 9.89934C40.7467 10.2756 40.3433 10.8052 40.1068 10.9306ZM23.886 83.7736C23.733 83.5367 23.3991 83.3416 23.093 83.258C23.1765 82.3661 23.8443 81.2373 24.5677 81.2373C24.7902 82.2268 24.2755 83.3138 23.886 83.7736ZM25.6388 82.3382C25.5276 82.2825 25.4024 82.2546 25.2911 82.2407C25.3745 81.6693 25.2215 80.7217 24.9433 80.1921C25.0128 79.8437 25.3467 79.5929 25.5832 79.5511C26.084 80.443 25.8475 81.7947 25.6249 82.3382H25.6388ZM26.6266 78.5337C26.9326 78.9518 27.0161 79.997 26.7239 80.861C26.6405 80.8192 26.557 80.8192 26.4735 80.8192C26.5014 80.2897 26.2649 79.4117 26.0145 78.9936C26.0979 78.687 26.5431 78.4362 26.6126 78.5337H26.6266ZM48.2867 80.0388C48.0641 79.8995 47.6885 79.7322 47.2851 79.6626C47.2712 79.0772 47.8833 77.7255 48.7041 77.6558C48.9962 78.3804 48.4954 79.7044 48.3006 80.0388H48.2867ZM49.8726 78.3526C49.7753 78.3247 49.6361 78.3247 49.5388 78.3108C49.5388 77.8509 49.3579 77.1402 49.1631 76.7778C49.3023 76.4016 49.6083 75.9417 49.7892 75.9974C50.0813 76.3876 50.1787 77.4746 49.8866 78.3526H49.8726ZM50.5543 74.3669C50.8186 74.7153 50.916 75.6351 50.8186 76.1368C50.7351 76.1368 50.6656 76.1368 50.5821 76.1368C50.5265 75.8162 50.2761 75.3424 50.0535 75.0219C50.1509 74.6038 50.3595 74.2554 50.5543 74.3669ZM39.6338 50.4668C41.9292 51.7768 44.322 53.4909 45.727 55.3026C46.52 56.3338 47.5355 58.0061 47.5216 59.553C47.4938 61.7967 45.3236 63.5248 43.9185 64.6675C42.7639 65.6012 41.5118 66.4931 40.1068 67.385C39.3138 67.8867 38.8547 68.0957 38.813 68.3884C38.7156 69.0713 39.8425 70.7714 40.2459 71.3707C40.8858 72.3183 41.7622 73.266 42.43 73.6701C43.8768 74.5759 46.0748 72.5274 48.3702 72.7643C49.1075 72.8339 49.9422 73.4611 50.2343 73.9488C50.0118 73.9488 49.7892 74.2694 49.7196 74.6874C48.6206 73.5168 46.7704 73.4611 45.9079 74.2275C45.6018 74.5063 45.6296 74.7014 45.7131 74.6317C46.8399 73.7259 48.871 74.0464 49.5805 75.5375C49.3301 75.5375 49.0101 75.9138 48.8432 76.3179C48.0224 75.2309 46.3391 74.994 45.4071 75.7744C45.1149 76.0253 45.0314 76.4155 45.1706 76.2761C46.1444 75.2727 48.1198 75.6351 48.565 77.1262C47.619 77.3492 46.826 78.4362 46.6869 79.6486C44.4611 79.4117 41.5397 80.1085 40.4824 79.3002C40.079 78.9797 39.5503 78.1853 39.1608 77.6697C38.4652 76.7778 38.0757 75.649 36.5176 76.2761C36.0725 74.9104 36.9489 74.5063 36.6985 73.475C36.5733 72.9594 36.4063 73.1127 36.4342 73.266C36.5176 73.9628 36.1559 74.2972 36.0168 74.6038C35.4604 74.5899 34.8622 74.7432 34.4726 75.0916C33.8605 72.8758 35.3351 72.5134 35.1126 71.1198C35.0291 70.6321 34.8482 70.6739 34.8482 70.8272C34.8622 71.3846 34.723 71.6912 34.5978 71.8863C34.3892 72.2068 34.1388 72.4298 33.9579 72.8061C33.2484 72.6249 32.5807 72.9594 32.1772 73.2381C31.7738 71.0641 34.0275 70.8411 33.6519 68.8901C33.5823 68.4999 33.4154 68.6253 33.4154 68.7507C33.4154 69.2245 33.2762 69.6426 33.0954 69.9074C32.8589 70.2558 32.6502 70.4091 32.4276 70.6181C31.8573 70.6739 31.0643 70.3394 30.8557 69.9353C31.2452 69.7123 31.5651 69.5033 31.8434 69.1688C32.4555 68.4163 32.4972 67.5383 33.0119 67.0505C33.6797 66.4234 36.0446 66.0053 37.088 65.3086C38.1314 64.6118 39.3695 63.0231 38.6461 61.072C38.507 60.6818 38.1453 60.1662 37.9088 59.8735C36.2811 57.7832 32.9006 56.6962 29.1585 56.5847C29.1724 56.1805 29.2002 55.8739 29.2002 55.5534C29.5341 55.3026 29.7288 55.1632 30.0627 54.773C30.6052 54.132 30.9391 53.4909 31.5791 52.9056C31.8573 52.6408 32.4833 52.153 32.9841 51.8186C33.8466 51.2472 34.0275 51.1915 34.097 50.9406C34.2083 50.5504 33.624 50.0766 32.9146 49.7979C33.8884 49.2683 34.4587 49.1011 35.6134 48.4461C36.7819 48.9199 38.6739 49.8954 39.6755 50.4668H39.6338ZM29.1724 54.2016C29.1724 53.5188 29.2141 52.6129 29.3115 51.9719C29.3532 51.6932 30.7861 50.7177 31.9407 50.2996C32.2607 50.2996 32.9841 50.4668 33.151 50.7734C33.2345 50.9546 32.4972 51.1218 30.9809 52.3203C30.1323 52.9892 29.9236 53.7557 29.1724 54.2016ZM59.555 43.1644C57.0927 43.7776 56.6197 45.6728 53.8096 45.5335C53.0445 45.4917 52.1819 45.2826 51.4725 45.1015C50.0535 44.7391 48.565 44.3071 48.1615 45.5335C46.7704 44.9482 47.0764 43.471 46.047 42.9414C45.5462 42.6906 45.5323 42.8717 45.6435 42.9693C46.0887 43.3177 46.1444 43.5406 46.2 43.9309C45.574 44.335 45.2818 45.0875 45.1984 45.7983C44.4472 45.631 44.002 45.213 43.6264 44.7113C43.0699 43.9587 43.2369 42.593 42.0961 42.1192C41.6092 41.9101 41.5536 42.1192 41.6788 42.1889C42.5691 42.7881 42.3744 43.5964 42.6804 44.4604C42.6108 45.2269 41.8457 45.8122 41.2753 45.9934C41.1641 44.8367 40.4128 44.4744 39.8007 43.7497C39.4529 43.3455 39.2164 42.8996 38.98 42.4118C38.7713 41.952 38.5209 41.3388 38.0201 41.1715C37.7557 41.0879 37.7001 41.2273 37.7836 41.297C38.1453 41.5617 38.2705 42.161 38.3122 42.4397C38.2705 43.025 37.4358 43.68 36.7541 43.8612C36.8515 41.6314 34.7091 41.3109 33.7771 39.8337C33.2484 38.9975 33.1928 37.6736 33.0258 36.5727C32.8172 35.0955 32.6224 33.6183 31.6208 32.6567C31.3426 32.3919 31.0782 32.3222 31.1895 32.5591C32.9285 34.9282 31.4817 38.8442 33.1789 40.7117C33.6936 41.2691 34.1944 41.6454 35.0013 42.3004C35.7247 42.8996 36.0446 44.126 35.7664 44.99C36.8098 45.0736 38.1174 44.3629 38.7574 43.4988C38.8269 43.6661 38.9799 43.9169 39.1191 44.0981C38.5487 44.8646 37.8949 45.4081 37.3245 45.854C36.4202 46.5647 35.2239 47.4427 33.9718 48.0977C32.6502 48.7945 31.8573 49.1429 30.6609 49.7839C30.2992 49.979 29.7706 50.3274 29.3671 50.648C29.4645 49.993 29.6454 49.2683 29.8818 48.892C30.0627 48.5715 29.9514 48.46 29.7149 48.5576C28.8107 48.9896 28.3099 50.4807 28.1429 52.808C28.0455 54.2713 27.9064 56.2363 27.809 57.5602C27.5865 60.3474 27.2387 63.7756 25.9449 65.2946C24.7346 66.7161 23.0374 67.3153 21.3402 67.8588C19.7682 68.3745 18.0014 68.7229 16.1373 69.1549C15.9147 69.2385 15.9008 69.4754 15.9008 69.7402C15.9982 72.7921 17.2363 75.3424 18.224 76.736C19.1144 77.9763 21.1315 76.3737 23.5521 76.3319C24.9433 76.304 26.0284 77.0147 26.4457 78.0181C26.2092 78.0042 25.8893 78.2968 25.7362 78.5477C25.0128 77.4049 23.3991 76.7221 21.8688 77.6C21.4654 77.8369 21.3958 78.1714 21.6323 78.0181C22.9122 77.2377 24.679 77.5303 25.4163 79.0772C25.138 79.133 24.7902 79.3978 24.6094 79.7183C23.886 78.8264 22.3836 78.5895 21.3402 79.356C21.1315 79.5371 21.0759 79.774 21.2567 79.6486C22.1192 79.0912 23.9834 79.0354 24.4146 80.652C23.413 80.861 22.6896 82.0317 22.5088 83.1605C19.9351 82.9793 17.1111 83.6064 15.5809 82.5473C13.7445 81.2791 13.4802 77.0705 11.1153 78.1993C10.8649 77.0565 11.8526 76.4991 11.95 75.3006C11.9917 74.7989 11.7691 74.7432 11.7274 74.9661C11.6161 75.6211 11.2126 76.0671 10.9205 76.3319C10.3501 76.2065 9.61283 76.2482 9.2233 76.4434C9.02854 75.5933 9.41807 74.8686 10.0023 74.3251C10.5866 73.7816 11.0457 73.0709 11.0596 72.2068C11.0596 71.8724 10.9066 71.7609 10.8509 72.0117C10.6145 72.8897 10.0997 73.5029 9.44589 73.8513C8.6112 73.9488 7.55393 73.4193 7.28961 72.7225C8.79205 72.4995 10.1276 70.9108 10.1832 69.4475C10.1971 68.904 10.0163 69.0155 9.98844 69.1549C9.83541 69.8656 9.47371 70.4509 9.13984 70.6878C8.23559 70.66 7.38699 70.214 7.1505 69.5869C7.95736 69.4336 8.62512 69.1131 9.09811 68.4999C9.58501 67.8728 9.91888 66.6185 10.4197 66.3816C11.2822 65.9635 12.7012 66.0053 13.6472 65.8939C15.9008 65.643 17.3337 65.3225 17.1389 62.5492C17.0137 60.7933 15.9565 58.3824 15.8591 55.9576C15.8034 54.7312 15.8591 54.0065 16.026 52.8638C16.0817 52.5154 16.1512 52.3342 16.0538 52.2924C15.7756 52.167 15.3165 52.5851 14.9409 53.6721C5.64806 55.1214 3.93694 48.4322 4.15953 44.6973C4.35429 41.3248 6.27407 37.7294 7.97127 34.1757C10.0719 29.772 12.4369 25.424 12.4925 21.4801C12.5342 18.3724 11.5883 15.1114 8.37471 15.4876C7.13659 15.627 6.23234 16.7558 6.0654 17.801C5.80109 19.543 6.92792 21.1456 8.59729 21.3686C8.33297 21.9818 7.67913 22.4277 6.95574 22.2187C7.37308 23.7795 7.19223 25.7584 6.07931 26.8175C6.00976 26.5388 5.85673 26.2601 5.74544 26.0789C4.68816 27.2914 3.10226 28.1415 1.59982 27.8906C1.91978 27.4865 2.03107 27.3053 2.26757 26.929C3.35266 25.187 3.29702 23.2639 3.32484 20.7136C3.38049 16.3935 5.91237 14.2334 8.52773 14.2613C12.3951 14.3031 13.981 18.01 13.7306 21.7309C13.4246 26.2601 10.9762 31.2213 8.38862 37.158C7.49828 39.1926 6.39928 41.9938 6.26016 44.126C5.92629 49.4355 10.0719 52.0834 15.0105 50.1323C15.6365 49.8815 16.7077 49.2962 17.0694 48.9338C18.697 46.5647 19.6291 46.3557 22.1192 43.7915C23.26 42.6209 24.0251 41.3388 24.4703 39.4992C24.5955 38.9975 24.7485 38.3844 24.832 37.6876C25.4441 37.3392 26.084 36.7539 26.4318 36.0571C26.8213 36.8096 27.2526 38.3704 26.877 39.6943C29.5201 39.9731 30.953 36.8375 30.1601 34.5938C30.0766 34.3848 29.9097 34.2733 29.8958 34.4823C30.007 36.0571 29.4089 37.7294 28.0177 38.1893C28.0734 35.4439 25.4024 34.1618 25.9032 31.3467C25.9727 31.0262 25.5971 31.2631 25.4441 31.9181C25.2493 32.7264 25.2911 33.9806 26.0701 35.3045C25.764 35.9177 24.9711 36.5866 24.4564 36.8514C23.7469 37.2137 22.3836 37.5343 21.5628 37.0186C22.2305 36.6702 22.94 35.3603 22.6479 33.1166C22.4114 31.3328 22.3557 29.3399 23.2183 28.2808C23.3295 28.1554 23.26 27.9603 22.8426 28.2669C22.1471 28.7825 21.7575 29.6326 21.6741 30.845C21.1872 30.9565 20.6446 31.2213 20.2829 31.5418C19.1144 29.2145 20.8116 26.7479 21.1037 24.755C21.215 24.0025 21.1872 23.0549 20.6029 22.5671C20.5055 22.4835 20.422 22.5114 20.436 22.595C20.4916 22.8458 20.7281 23.6123 20.3386 24.6435C19.4065 25.0198 18.1266 24.5878 17.8762 23.9746C19.8378 22.7343 18.4327 20.6161 17.292 17.9543C16.7077 16.5886 16.2347 14.7351 16.2903 12.8956C16.2903 12.3521 16.4434 11.5856 16.6242 11.1536C16.7355 10.9027 16.1234 11.0282 15.7061 11.8643C15.0105 11.7389 14.7044 11.0003 14.7601 10.4986C15.4835 10.3592 16.2764 9.84359 16.3738 9.28616C16.5407 8.35245 16.4155 7.55811 17.0694 5.69069C17.125 5.52346 16.7772 5.64888 16.6103 5.70463C16.3042 5.48165 16.026 4.86847 16.1373 4.42253C17.765 4.68731 17.9041 3.23797 19.1283 2.49937C18.9892 2.20671 19.0309 1.5796 19.1283 1.32875C19.2535 1.38449 19.6013 1.50992 20.0325 1.50992C22.2723 1.41237 23.5382 0.840992 27.183 0.95248C28.4211 0.994287 29.8123 1.28694 30.5218 1.88619C29.5201 1.81651 28.1986 2.01161 27.2108 2.30427C25.9727 2.06735 24.665 2.17884 24.1921 2.73628C23.8443 3.14042 23.7469 4.26923 23.8443 5.02177C23.9834 6.0809 24.512 6.8195 25.2215 7.39088C26.0701 8.07374 27.5308 8.14341 27.7673 7.62779C27.8786 7.39087 27.1135 7.80895 26.0005 7.05641C25.1937 6.51291 24.9433 5.78825 24.832 5.04964C24.7624 4.61763 24.832 3.66998 25.0546 3.36339C25.458 2.80596 27.503 2.91744 28.6576 3.61424C29.7149 4.25529 29.5758 4.97996 29.7845 4.70125C30.0766 4.26923 29.8401 3.36339 28.8941 2.91744C29.8262 2.55511 32.0242 2.4715 34.417 3.05681C35.2099 3.25191 36.1142 3.5585 35.8499 4.15774C35.7525 4.36678 35.6829 4.35285 35.0291 4.19955C33.4571 3.83722 33.2484 3.79541 33.2623 4.15774C33.3041 5.04964 34.89 4.93815 35.2517 5.76037C35.4325 6.15058 35.2934 6.76376 35.1821 7.14003C35.0847 7.44662 35.0847 7.59991 35.2378 7.50236C35.6412 7.19577 35.9473 6.40142 36.0168 5.45378C36.0725 4.89634 36.6289 4.82667 36.8793 4.102C38.507 3.93477 40.3294 4.24136 41.6649 4.74305C41.8179 4.79879 41.6927 5.63495 41.4562 5.74644C40.6215 5.99729 40.2459 5.14719 40.2042 5.55133C40.1624 6.01122 40.8858 6.42929 41.5118 6.59653C41.8179 7.22364 41.957 8.65904 41.4562 9.03531C40.8302 9.4952 38.5209 8.99351 37.4636 8.92383C35.0569 8.74266 33.7075 9.73211 33.4014 11.7668C33.318 12.2684 33.4014 12.8398 33.5962 13.2858C34.6535 15.8082 38.2426 12.8259 40.4685 14.2195C40.6911 14.3728 40.1763 16.491 39.606 17.0485C39.3556 16.4632 38.7435 16.059 38.0618 15.9615C36.9211 15.7942 35.3491 16.6304 33.9579 16.3099C33.0398 16.1008 32.2746 15.5295 32.0242 14.4564C31.4538 14.6794 31.0782 15.0417 30.7583 15.5852C30.2296 15.2229 30.0349 14.0383 30.2157 13.1743C28.922 13.1464 28.8246 15.0974 27.35 14.9581C27.9899 13.676 26.3483 13.007 27.7117 11.056C27.8925 10.7912 27.4752 10.8888 27.1969 11.2372C25.7084 12.9652 27.6004 14.108 26.2231 15.5573C28.5603 16.4353 29.1863 14.6097 29.5062 14.5539C29.6036 15.4458 30.1323 16.4771 31.1478 16.9649C31.1478 16.6165 31.3286 16.073 31.6208 15.8221C31.9268 16.2123 32.2329 16.5468 32.7476 16.7837C32.9563 19.0274 33.8049 19.7102 35.363 20.3373C36.8376 20.9366 39.1469 21.5916 41.0667 22.5392C42.6248 23.3057 43.5429 24.1697 44.2385 25.3682C45.5323 27.6119 45.1288 29.1727 45.9496 30.0925C44.9897 30.3433 44.6976 29.4514 44.0159 29.0473C43.7933 27.2356 42.7917 25.9117 41.4979 25.2428C40.9971 24.978 40.9276 25.1592 41.0806 25.2707C41.7901 25.8002 42.43 26.6921 42.6943 27.3889C43.1951 28.671 43.4316 29.981 43.0282 31.3885C42.583 30.8032 41.5814 30.5384 41.1501 30.5106C40.5241 30.4688 40.538 30.7057 40.6911 30.7475C41.8596 31.068 42.9865 32.0714 43.1951 33.4371C43.6542 32.9772 44.1968 31.4582 44.0855 30.0089C44.322 30.1064 44.308 30.4409 45.0454 30.7614C45.1288 32.6846 44.6141 34.9004 43.9324 36.1964C42.2631 35.8759 41.5675 34.6495 40.8997 33.3256C40.7884 33.0469 40.6215 33.242 40.6911 33.6461C40.8163 34.538 41.1501 35.1373 41.5257 35.639C42.6526 37.1162 44.6837 37.1441 46.8817 37.6597C47.6746 37.8409 48.565 38.0917 49.2744 38.3426C50.6378 38.8164 51.3333 39.2623 52.0289 39.332C55.0894 39.5828 55.8685 36.4473 58.7064 36.1685C59.6941 36.071 60.6958 36.4194 61.1966 37.0186C60.9044 37.0326 60.7792 37.5761 60.7792 37.8269C59.5829 36.935 57.8161 37.2416 57.037 38.3007C56.884 38.5377 56.8423 38.8164 56.9814 38.6631C58.0526 37.367 60.028 37.6736 60.7097 38.4401C60.4732 38.454 60.3341 39.0812 60.348 39.4714C59.4298 38.9418 57.9274 39.0533 57.1901 40.1682C56.9953 40.4469 56.9814 40.7535 57.1066 40.5862C57.677 39.7501 59.3881 39.123 60.4175 40.3493C59.6246 40.8231 59.3742 41.952 59.555 43.1923V43.1644ZM38.9382 12.0176C38.7574 12.3381 38.4235 12.6865 37.9922 13.0489C36.6289 13.1464 34.89 14.0801 34.5839 13.0907C35.4186 11.9061 37.2688 11.6831 38.9243 12.0176H38.9382ZM34.2779 12.157C34.3335 9.50913 36.6289 9.55094 39.0634 9.95508C39.2582 10.2477 39.4947 10.847 39.5086 11.2651C37.0741 10.847 35.4186 11.2093 34.2779 12.157ZM39.2443 12.4914C39.3138 12.3799 39.3556 12.2684 39.3973 12.2963C39.4669 12.3242 39.6616 12.8677 39.6338 13.1882C39.4251 13.1325 38.9521 13.1046 38.7156 13.1185C38.966 12.9095 39.133 12.6587 39.2443 12.5054V12.4914ZM61.1131 43.1086C60.7792 43.0111 60.4732 42.9972 60.0976 43.0668C59.9724 42.3561 59.9724 41.2273 60.6819 40.7395C61.0992 41.1715 61.3357 42.37 61.1131 43.1086ZM61.753 41.3109C61.6 40.8092 61.28 40.196 60.8071 39.7919C60.7792 39.4156 60.8349 38.8303 61.0714 38.8024C61.5722 39.2344 62.0313 40.419 62.0174 41.2691C61.9478 41.2691 61.8365 41.297 61.753 41.3109ZM62.1286 39.4992C61.9617 39.0393 61.6139 38.5237 61.2661 38.1614C61.2105 37.8827 61.294 37.2834 61.5026 37.3392C62.0034 37.7712 62.3791 38.8442 62.3373 39.4574C62.2817 39.4574 62.1843 39.4853 62.1286 39.4992Z" fill="#8A5DA4"/>
<path d="M28.5748 5.95607C28.5748 6.33234 29.0199 6.20691 29.1312 5.70522C29.3816 4.5346 27.7123 3.80994 26.5715 3.92142C26.2377 3.9493 25.9177 4.1862 26.2377 4.21408C27.434 4.32556 28.5748 4.86906 28.5748 5.95607Z" fill="#8A5DA4"/>
<path d="M22.4827 18.3305C21.9819 19.1248 21.0498 19.738 20.2291 19.5847C20.1595 17.8706 18.9075 17.7312 19.3109 15.4039C19.3387 15.2088 19.2413 15.1391 19.0327 15.5154C18.0032 17.4246 19.923 18.9297 19.2692 20.4905C20.7438 21.0062 22.274 19.8355 22.5662 18.6231C22.6357 18.3305 22.5662 18.1911 22.4827 18.3305Z" fill="#8A5DA4"/>
<path d="M27.6285 26.7621C27.239 27.9049 26.7104 28.8525 25.5418 29.1731C25.3192 25.8563 22.4952 25.5776 23.6499 21.7313C23.6916 21.564 23.5803 21.5222 23.4412 21.6895C23.0099 22.1912 22.7734 23.2503 22.7734 23.8635C22.7734 26.4556 25.2079 27.5426 24.3176 30.4273C25.7227 30.6642 26.8217 29.7305 27.3086 28.9919C27.5729 28.5738 27.8094 27.877 27.865 27.0269C27.8929 26.6088 27.7259 26.4416 27.6425 26.7482L27.6285 26.7621Z" fill="#8A5DA4"/>
<path d="M38.8819 28.7128C38.3811 28.2529 38.3811 28.5037 38.4785 28.6292C40.1757 31.3885 38.3533 33.2977 38.9376 35.5553C38.4368 35.6668 37.4908 35.3323 36.99 35.0118C36.4057 34.6216 35.9605 33.7994 36.0718 34.4126C36.3083 35.6668 38.3394 37.1301 40.4539 36.2939C38.9098 34.4822 41.1773 30.8032 38.8819 28.6988V28.7128Z" fill="#8A5DA4"/>
<path d="M76.3164 59.511H110.288V25.4795H76.3164V59.511ZM109.356 26.4132V58.5773L77.2485 26.4132H109.356Z" fill="#8A5DA4"/>
<path d="M131.937 21.6191H124.508V38.8718H131.937C137.195 38.8718 139.755 35.1509 139.755 30.1479C139.755 24.4203 136.402 21.6191 131.937 21.6191ZM131.672 35.6805H128.292V24.8105H130.991C134.761 24.8105 135.957 27.0263 135.957 30.5103C135.957 34.3287 133.856 35.6805 131.672 35.6805Z" fill="#8A5DA4"/>
<path d="M153.844 35.6805H145.456V21.6191H141.672V38.8579H153.844V35.6805Z" fill="#8A5DA4"/>
<path d="M158.815 31.43H165.785V38.8579H169.569V21.6191H165.785V28.2387H158.815V21.6191H155.031V38.8579H158.815V31.43Z" fill="#8A5DA4"/>
<path d="M130.631 45.3105H124.719V62.5632H130.631C136.377 62.5632 138.908 59.3022 138.908 53.5327C138.908 47.7633 135.945 45.3245 130.631 45.3245V45.3105ZM130.826 60.6261H127.014V47.2476H130.868C135.083 47.2476 136.599 49.7422 136.599 53.8393C136.599 60.1941 132.384 60.6261 130.812 60.6261H130.826Z" fill="#8A5DA4"/>
<path d="M142.826 50.0625H140.781V62.5491H142.826V50.0625Z" fill="#8A5DA4"/>
<path d="M142.826 45.3105H140.781V47.819H142.826V45.3105Z" fill="#8A5DA4"/>
<path d="M153.947 51.8606H153.919C153.168 50.481 151.777 49.7842 150.205 49.7842C145.892 49.7842 144.445 53.4354 144.445 56.3759C144.445 59.7762 146.296 62.7028 150.01 62.7028C151.582 62.7028 153.223 61.9502 153.891 60.4312H153.933V61.2534C153.933 64.0546 152.876 65.9916 150.191 65.9916C148.841 65.9916 147.061 65.4621 146.963 63.957H144.918C145.044 66.6884 147.742 67.6222 150.079 67.6222C154.016 67.6222 155.867 65.5457 155.867 61.4904V50.0629H153.933V51.8467L153.947 51.8606ZM150.135 60.8911C147.436 60.8911 146.615 58.3826 146.615 56.139C146.615 53.742 147.673 51.5959 150.302 51.5959C152.931 51.5959 153.849 53.8674 153.849 56.0693C153.849 58.4105 152.834 60.905 150.135 60.905V60.8911Z" fill="#8A5DA4"/>
<path d="M160.19 45.3105H158.145V47.819H160.19V45.3105Z" fill="#8A5DA4"/>
<path d="M160.19 50.0625H158.145V62.5491H160.19V50.0625Z" fill="#8A5DA4"/>
<path d="M165.353 46.3281H163.308V50.0769H161.18V51.8886H163.308V59.832C163.308 62.1315 164.157 62.5635 166.271 62.5635H167.843V60.7518H166.897C165.617 60.7518 165.353 60.5846 165.353 59.6369V51.8886H167.843V50.0769H165.353V46.3281Z" fill="#8A5DA4"/>
<path d="M179.084 59.6369V53.2124C179.084 50.2859 176.65 49.7842 174.41 49.7842C171.642 49.7842 169.249 50.8712 169.124 53.965H171.169C171.266 52.1254 172.546 51.5959 174.285 51.5959C175.592 51.5959 177.053 51.8885 177.053 53.6723C177.053 55.2192 175.119 55.0798 172.852 55.5118C170.723 55.916 168.637 56.5292 168.637 59.3582C168.637 61.8527 170.487 62.8561 172.755 62.8561C174.493 62.8561 176.01 62.2568 177.151 60.919C177.151 62.2708 177.832 62.8561 178.889 62.8561C179.543 62.8561 180.002 62.7306 180.364 62.5216V60.9329C180.1 61.0305 179.905 61.0583 179.738 61.0583C179.084 61.0583 179.084 60.6263 179.084 59.6508V59.6369ZM177.039 58.2154C177.039 59.3442 175.926 61.0444 173.228 61.0444C171.975 61.0444 170.821 60.5566 170.821 59.2049C170.821 57.6858 171.975 57.1981 173.325 56.9612C174.702 56.7243 176.246 56.6964 177.039 56.1111V58.2154Z" fill="#8A5DA4"/>
<path d="M183.647 45.3105H181.602V62.5632H183.647V45.3105Z" fill="#8A5DA4"/>
<path d="M194.664 45.3105H192.383V62.5493H203.79V60.6261H194.664V45.3105Z" fill="#8A5DA4"/>
<path d="M209.759 49.7698C206.365 49.7698 203.902 52.5291 203.902 56.2639C204.028 60.0824 205.906 62.8277 209.884 62.8277C212.68 62.8277 214.656 61.3366 215.212 58.5773H213.181C212.82 60.1939 211.637 61.0161 209.954 61.0161C207.227 61.0161 206.003 59.079 206.073 56.905H215.407C215.532 53.8809 214.183 49.7559 209.759 49.7559V49.7698ZM206.073 55.1072C206.212 53.198 207.491 51.5815 209.634 51.5815C211.665 51.5815 213.126 53.1562 213.223 55.1072H206.059H206.073Z" fill="#8A5DA4"/>
<path d="M226.549 59.6369V53.2124C226.549 50.2859 224.115 49.7842 221.875 49.7842C219.106 49.7842 216.714 50.8712 216.588 53.965H218.633C218.731 52.1254 220.011 51.5959 221.75 51.5959C223.057 51.5959 224.518 51.8885 224.518 53.6723C224.518 55.2192 222.584 55.0798 220.317 55.5118C218.188 55.916 216.102 56.5292 216.102 59.3582C216.102 61.8527 217.952 62.8561 220.219 62.8561C221.958 62.8561 223.475 62.2568 224.615 60.919C224.615 62.2708 225.297 62.8561 226.354 62.8561C227.008 62.8561 227.467 62.7306 227.829 62.5216V60.9329C227.565 61.0305 227.37 61.0583 227.203 61.0583C226.549 61.0583 226.549 60.6263 226.549 59.6508V59.6369ZM224.504 58.2154C224.504 59.3442 223.391 61.0444 220.692 61.0444C219.44 61.0444 218.286 60.5566 218.286 59.2049C218.286 57.6858 219.44 57.1981 220.79 56.9612C222.167 56.7243 223.711 56.6964 224.504 56.1111V58.2154Z" fill="#8A5DA4"/>
<path d="M230.905 52.6966H230.863V50.0627H228.93V62.5493H230.975V56.9888C230.975 53.8254 232.185 51.9441 235.482 51.9441V49.77C233.27 49.7004 231.893 50.6898 230.905 52.6966Z" fill="#8A5DA4"/>
<path d="M242.35 49.7695C240.569 49.7695 239.164 50.4942 238.302 52.0411H238.246V50.0622H236.312V62.5488H238.357V55.4972C238.357 53.2535 239.568 51.5812 242.044 51.5812C243.616 51.5812 244.576 52.5706 244.576 54.0897V62.5488H246.621V54.3405C246.621 51.6648 245.605 49.7695 242.336 49.7695H242.35Z" fill="#8A5DA4"/>
<path d="M250.951 50.0625H248.906V62.5491H250.951V50.0625Z" fill="#8A5DA4"/>
<path d="M250.951 45.3105H248.906V47.819H250.951V45.3105Z" fill="#8A5DA4"/>
<path d="M259.213 49.7695C257.433 49.7695 256.028 50.4942 255.165 52.0411H255.109V50.0622H253.176V62.5488H255.221V55.4972C255.221 53.2535 256.431 51.5812 258.907 51.5812C260.479 51.5812 261.439 52.5706 261.439 54.0897V62.5488H263.484V54.3405C263.484 51.6648 262.469 49.7695 259.199 49.7695H259.213Z" fill="#8A5DA4"/>
<path d="M274.529 51.8606H274.501C273.75 50.481 272.359 49.7842 270.787 49.7842C266.474 49.7842 265.027 53.4354 265.027 56.3759C265.027 59.7762 266.878 62.7028 270.592 62.7028C272.164 62.7028 273.805 61.9502 274.473 60.4312H274.515V61.2534C274.515 64.0546 273.458 65.9916 270.773 65.9916C269.423 65.9916 267.643 65.4621 267.545 63.957H265.5C265.626 66.6884 268.324 67.6222 270.661 67.6222C274.598 67.6222 276.449 65.5457 276.449 61.4904V50.0629H274.515V51.8467L274.529 51.8606ZM270.717 60.8911C268.018 60.8911 267.198 58.3826 267.198 56.139C267.198 53.742 268.255 51.5959 270.884 51.5959C273.513 51.5959 274.431 53.8674 274.431 56.0693C274.431 58.4105 273.416 60.905 270.717 60.905V60.8911Z" fill="#8A5DA4"/>
<path d="M296.453 52.7245H287.397V45.3105H285.102V62.5493H287.397V54.6615H296.453V62.5493H298.749V45.3105H296.453V52.7245Z" fill="#8A5DA4"/>
<path d="M309.545 57.1141C309.545 59.3578 308.334 61.0301 305.858 61.0301C304.286 61.0301 303.326 60.0406 303.326 58.5216V50.0625H301.281V58.2708C301.281 60.9465 302.297 62.8417 305.566 62.8417C307.347 62.8417 308.752 62.1171 309.614 60.5702H309.67V62.5491H311.604V50.0625H309.559V57.1141H309.545Z" fill="#8A5DA4"/>
<path d="M319.925 49.7703C318.214 49.7703 316.628 50.3696 315.946 51.7492H315.904V45.2969H313.859V62.5495H315.904V60.8772H315.946C316.864 62.3544 318.701 62.8283 319.98 62.8283C323.792 62.8283 325.67 59.8599 325.67 56.3341C325.67 52.8083 323.764 49.7703 319.925 49.7703ZM319.758 61.0305C316.934 61.0305 315.821 58.759 315.821 56.2923C315.821 53.8257 316.878 51.582 319.633 51.582C322.387 51.582 323.486 53.8535 323.486 56.1948C323.486 58.536 322.54 61.0305 319.744 61.0305H319.758Z" fill="#8A5DA4"/>
<path d="M340.986 52.8497C338.217 52.2226 335.463 51.9021 335.463 49.7838C335.463 47.5401 337.397 46.8433 339.316 46.8433C341.681 46.8433 343.323 47.9025 343.587 50.3691H345.757C345.618 46.5786 342.933 44.9062 339.414 44.9062C336.284 44.9062 333.168 46.4531 333.168 49.9511C333.168 53.1145 335.936 53.9089 338.69 54.522C341.445 55.1213 344.185 55.5394 344.185 57.9085C344.185 60.403 341.89 61.044 339.817 61.044C337.216 61.044 334.795 59.7898 334.795 56.8911H332.625C332.625 61.0998 335.88 62.9811 339.734 62.9811C342.864 62.9811 346.467 61.5039 346.467 57.8388C346.467 54.4524 343.712 53.4908 340.972 52.8637L340.986 52.8497Z" fill="#8A5DA4"/>
<path d="M353.31 49.7698C349.915 49.7698 347.453 52.5291 347.453 56.2639C347.578 60.0824 349.456 62.8277 353.435 62.8277C356.231 62.8277 358.207 61.3366 358.763 58.5773H356.732C356.37 60.1939 355.188 61.0161 353.505 61.0161C350.778 61.0161 349.554 59.079 349.623 56.905H358.958C359.083 53.8809 357.734 49.7559 353.31 49.7559V49.7698ZM349.623 55.1072C349.762 53.198 351.042 51.5815 353.185 51.5815C355.216 51.5815 356.676 53.1562 356.774 55.1072H349.609H349.623Z" fill="#8A5DA4"/>
<path d="M370.896 50.0627H368.155L362.465 55.5256V45.3105H360.406V62.5493H362.465V57.825L364.385 56.0273L368.656 62.5493H371.257L365.957 54.6058L370.896 50.0627Z" fill="#8A5DA4"/>
<path d="M380.741 45.3105H378.445V62.5632H380.741V45.3105Z" fill="#8A5DA4"/>
<path d="M384.999 45.3105H382.703V62.5632H384.999V45.3105Z" fill="#8A5DA4"/>
</svg>
